<svg xmlns="http://www.w3.org/2000/svg" xml:space="preserve" width="64" height="64" fill-rule="evenodd" clip-rule="evenodd" viewBox="0 60 640 640">
 <g id="Layer_x0020_1">
  <metadata id="CorelCorpID_0Corel-Layer"/>
  <path d="M244.054 83.8593l14.0435 0 213.18 0 51.792 92.198 106.643 0c5.66936,0 10.2875,4.77171 10.2875,10.2993l0 359.768c0,5.51582 -4.7599,10.2875 -10.2875,10.2875l-619.413 0c-5.52763,0 -10.2993,-4.62998 -10.2993,-10.2875l0 -359.768c0,-5.66936 4.62998,-10.2993 10.2993,-10.2993l47.9533 0 0 -33.0831 59.2566 0 0 33.0831 64.3591 0c13.3939,-26.4334 26.7877,-52.8786 40.1816,-79.3002 8.1379,-16.1222 3.66146,-12.8978 22.0042,-12.8978zm329.248 137.742c16.9608,0 30.7209,13.76 30.7209,30.7209 0,16.9608 -13.76,30.7209 -30.7209,30.7209 -16.9608,0 -30.7209,-13.76 -30.7209,-30.7209 0,-16.9608 13.76,-30.7209 30.7209,-30.7209zm-226.196 35.8233c51.4258,0 93.1311,41.7052 93.1311,93.1193 0,51.414 -41.7052,93.1193 -93.1311,93.1193 -51.4258,0 -93.1311,-41.7052 -93.1311,-93.1193 0,-51.414 41.7052,-93.1193 93.1311,-93.1193zm0 -60.674c84.9341,0 153.805,68.8709 153.805,153.793 0,84.9223 -68.8709,153.805 -153.805,153.805 -84.9223,0 -153.793,-68.8827 -153.793,-153.805 0,-84.9223 68.8709,-153.793 153.793,-153.793z"/>
 </g>
</svg>
