<svg version="1.1" id="Layer_1" xmlns="http://www.w3.org/2000/svg" xmlns:xlink="http://www.w3.org/1999/xlink" x="0px" y="0px" viewBox="0 0 281 281" style="enable-background:new 0 0 281.27 119.54;" xml:space="preserve">
<path class="st0" d="M246.86,69.27h-4.25v35.96h4.25c9.85,0,18.2-5.99,18.2-17.97C265.05,75.26,256.71,69.27,246.86,69.27  L246.86,69.27z M248.46,118.08h-19.08V56.42h19.08c16.33,0,30.34,11.59,30.34,30.84C278.8,106.48,264.79,118.08,248.46,118.08  L248.46,118.08z M227.43,118.08v-12.85h-22.71V56.42h-13.76v61.66H227.43z M161.08,68.21h-5.85v13.82h5.85c3.55,0,7.1-2.13,7.1-6.95  C168.18,70.43,164.63,68.21,161.08,68.21L161.08,68.21z M175.37,118.08l-15.26-24.26h-4.88v24.26h-13.22V56.42h21.12  c9.67,0,18.28,7.04,18.28,18.65c0,7.25-3.91,13.04-8.7,15.46l18.01,27.54H175.37z M107.55,68.11c-8.52,0-16.51,7.54-16.51,19.04  c0,11.6,7.99,19.14,16.51,19.14c8.52,0,16.59-7.54,16.59-19.14C124.14,75.65,116.07,68.11,107.55,68.11L107.55,68.11z   M107.55,119.54c-15.62,0-30.43-12.48-30.43-32.39c0-19.72,14.81-32.19,30.43-32.19c15.7,0,30.52,12.47,30.52,32.19  C138.07,107.06,123.25,119.54,107.55,119.54L107.55,119.54z M81.32,56.42H68.99l-7.55,24.94c-1.06,3.58-2.22,7.91-3.01,12.38h-0.18  c-0.89-4.46-1.95-9.08-2.93-12.47l-7.37-24.84H36.07l-7.45,24.94c-1.16,3.87-2.14,7.74-3.02,12.38h-0.18  c-0.8-4.64-1.86-8.61-3.02-12.38l-7.37-24.94H1.83l18.89,62.06h8.79l8.25-27.27c1.24-4.05,2.48-8.32,3.73-13.72h0.18  c1.24,5.4,2.48,9.57,3.72,13.72l8.25,27.27h8.78L81.32,56.42z M26.79,41.95c-8.74,0-15.46-6.23-15.46-15.66  c0-9.52,6.72-15.75,15.1-15.75c4.99,0,8.59,1.5,10.98,3.15l0.8-10.63C35.46,1.34,30.91,0,25.13,0C13.07,0,0,8.97,0,26.29  c0,17.22,13,26.28,25.13,26.28c3.48,0,6.31-0.41,8.58-1.11l4.42-12.46v-0.05C35.61,40.76,31.78,41.95,26.79,41.95L26.79,41.95z   M277.57,114.05l-0.3,0v1.09h0.3c0.31,0,0.56-0.17,0.56-0.54C278.13,114.23,277.87,114.05,277.57,114.05L277.57,114.05z   M278.66,117.79l-1.07-1.75h-0.32l-0.01,1.72h-0.97l0.01-4.62h1.36c0.74,0,1.48,0.55,1.48,1.47c0,0.5-0.27,0.93-0.61,1.17l0.97,1.45  L278.66,117.79z M277.6,112.36c-1.6,0-2.82,1.28-2.82,3.09c0,1.79,1.21,3.07,2.82,3.08c1.59,0,2.82-1.31,2.82-3.07  C280.42,113.64,279.19,112.36,277.6,112.36L277.6,112.36z M277.6,119.41c-2.07,0-3.66-1.68-3.66-3.96c0-2.31,1.59-3.96,3.66-3.96  c2.06,0,3.67,1.66,3.67,3.96C281.27,117.74,279.66,119.42,277.6,119.41L277.6,119.41z M259.73,52.57c7.45,0,13.15-1.81,17.05-5.2  V24.23h-18.63v9.37h8.37v7.08c-1.59,1.03-3.61,1.5-6.28,1.5c-8.38,0-14.95-6.14-14.95-15.58c0-9.92,6.94-16.06,15.32-16.06  c5.05,0,9.46,1.65,12.63,4.17l0.87-10.7c-3.18-2.28-8.23-4-14.66-4c-12.14,0-25.29,8.96-25.29,26.28  C234.17,43.44,247.03,52.57,259.73,52.57L259.73,52.57z M232,51.94V1.17h-11.2v18.89c0,3.14,0.08,6.37,0.22,9.37l-0.14,0.08  c-2.09-2.91-5.35-7.01-7.51-9.6l-15.6-18.73h-9.02v50.21h11.19V30.14c0-3.14-0.07-7-0.22-10.54l0.15-0.08  c2.46,3.3,5.71,7.55,8.6,11.01l17.9,21.41H232z M174,51.39h11.2V1.17H174V51.39z M155.23,10.78h-4.55v11.25h4.55  c2.88,0,5.78-1.73,5.78-5.66C161.01,12.6,158.12,10.78,155.23,10.78L155.23,10.78z M156.82,31.64h-6.14v19.75h-10.77V1.17h16.91  c7.94,0,14.88,5.76,14.88,15.2C171.7,25.8,164.76,31.64,156.82,31.64L156.82,31.64z M137.38,51.39l-4.11-50.21h-9.18l-9.97,21.1  c-1.59,3.45-3.25,7.39-4.4,10.69h-0.15c-1.22-3.3-3.25-7.79-4.62-10.69L94.92,1.17h-9.11l-3.98,50.21h10.77l1.44-18.49  c0.22-2.83,0.43-5.89,0.43-9.21h0.14c1.16,3.23,2.53,6.53,3.91,9.45l8.73,18.41h4.48l8.67-18.41c1.37-2.91,2.82-6.29,3.9-9.52h0.14  c0,3.22,0.22,6.36,0.44,9.28l1.5,18.49H137.38z M59.88,21.64c-0.51-1.42-1.02-3.3-1.45-5.11h-0.14c-0.36,1.81-0.94,3.7-1.45,5.11  l-3.32,10.07h9.68L59.88,21.64z M69.56,51.39l-3.62-10.46H50.77l-3.54,10.46H36.69l18.12-50.6h7.73l18.13,50.6H69.56z"/>
</svg>
