<?xml version="1.0" encoding="UTF-8" standalone="no"?>
<svg
   xmlns:dc="http://purl.org/dc/elements/1.1/"
   xmlns:cc="http://creativecommons.org/ns#"
   xmlns:rdf="http://www.w3.org/1999/02/22-rdf-syntax-ns#"
   xmlns:svg="http://www.w3.org/2000/svg"
   xmlns="http://www.w3.org/2000/svg"
   viewBox="0 0 310.92929 324.37744"
   height="324.37744"
   width="310.92929"
   id="svg2"
   version="1.1">
  <metadata
     id="metadata8">
    <rdf:RDF>
      <cc:Work
         rdf:about="">
        <dc:format>image/svg+xml</dc:format>
        <dc:type
           rdf:resource="http://purl.org/dc/dcmitype/StillImage" />
        <dc:title></dc:title>
      </cc:Work>
    </rdf:RDF>
  </metadata>
  <defs
     id="defs6" />
  <g
     transform="translate(-2.8349008,-0.23793472)"
     id="g10">
    <path
       id="path1587"
       d="M 151.43527,323.91773 C 26.606174,310.54311 -38.114348,174.62602 31.084212,71.173046 88.158844,-14.154452 211.30335,-24.288267 282.34163,50.496566 c 15.08379,15.8793 35.09157,48.09473 30.79201,49.579594 -2.04502,0.70624 -151.34265,31.35468 -152.72854,31.35275 -0.5334,-7.5e-4 -2.72371,-3.15075 -4.86734,-7 C 119.73541,60.139686 18.620832,87.957916 18.620832,162.09693 c 0,74.13901 101.114578,101.95724 136.916928,37.66803 2.14363,-3.84926 4.33394,-6.99926 4.86734,-7 1.40733,-0.001 150.70209,30.65262 152.76726,31.3676 4.38216,1.51713 -16.51568,34.91693 -31.53452,50.39976 -33.17288,34.19773 -85.76676,54.14641 -130.20257,49.38541 z m 28,-29.04405 c 24.29504,-7.12901 49.44127,-22.2226 64.08012,-38.46296 7.34093,-8.14404 19.53613,-25.14199 18.66392,-26.01419 -0.6074,-0.6074 -17.30399,-4.30168 -17.48125,-3.86789 C 224.13922,276.83752 138.77484,303.42449 83.160968,276.83983 -35.866118,219.94224 -1.9383882,43.290886 129.43527,35.903625 c 44.40017,-2.496663 101.50847,28.103831 115.26279,61.761591 0.17726,0.43378 16.87385,-3.26049 17.48125,-3.86789 2.58385,-2.58385 -21.77889,-30.59583 -35.85003,-41.21991 C 155.25922,-1.0823323 50.103458,26.627803 16.255132,107.93514 -27.832668,213.8388 70.743747,326.76756 179.43527,294.87368 Z m -41.12203,-33.44411 c 21.8931,-5.07734 48.38823,-23.0878 59.28696,-40.30116 l 2.52727,-3.99155 -7.59716,-1.52572 -7.59716,-1.52573 -8.45261,9.26129 c -57.00009,62.45349 -160.339178,22.97781 -160.339178,-61.24977 0,-84.227584 103.339088,-123.703253 160.339178,-61.24978 l 8.45261,9.2613 7.59716,-1.52573 7.59716,-1.52573 -2.52727,-3.99154 C 163.63659,49.423606 76.299272,45.944676 35.489946,96.608076 -26.458868,173.51542 42.280098,283.70115 138.31324,261.42957 Z" />
  </g>
</svg>
