<?xml version="1.0" encoding="UTF-8"?>
<!DOCTYPE svg PUBLIC "-//W3C//DTD SVG 1.1//EN" "http://www.w3.org/Graphics/SVG/1.1/DTD/svg11.dtd">
<!-- Creator: CorelDRAW -->
<svg xmlns="http://www.w3.org/2000/svg" xml:space="preserve" width="64px" height="64px" style="shape-rendering:geometricPrecision; text-rendering:geometricPrecision; image-rendering:optimizeQuality; fill-rule:evenodd; clip-rule:evenodd"
viewBox="0 0 640 640"
 xmlns:xlink="http://www.w3.org/1999/xlink">
 <g id="Layer_x0020_1">
  <metadata id="CorelCorpID_0Corel-Layer"/>
  <path class="fil0" d="M84.7688 291.854l46.6659 0 0 -5.59849 0 -92.9421c0,-53.1503 21.7562,-101.482 56.7645,-136.502l0 -0.0472447c35.0201,-35.0201 83.3632,-56.7763 136.549,-56.7763 53.1503,0 101.482,21.7562 136.502,56.7763l0.0472447 0.0472447c35.0083,35.0201 56.7645,83.3514 56.7645,136.502l0 92.9421 0 5.59849 37.1697 0c8.27963,0 15.0592,6.77961 15.0592,15.0592l0 318.039c0,8.27963 -6.77961,15.0592 -15.0592,15.0592l-470.462 0c-8.27963,0 -15.0592,-6.77961 -15.0592,-15.0592l0 -318.039c0,-8.27963 6.77961,-15.0592 15.0592,-15.0592zm121.773 0l236.401 0 0 -5.59849 0 -94.0169c0,-32.5043 -13.2994,-62.0677 -34.7012,-83.4932l-0.0236223 0.0236223c-21.4136,-21.4255 -50.977,-34.7366 -83.4695,-34.7366 -32.5043,0 -62.0677,13.2994 -83.505,34.713 -21.4018,21.4255 -34.7012,50.9888 -34.7012,83.4932l0 94.0169 0 5.59849zm119.163 174.026l23.8586 110.104 -65.3984 0.271657 19.1931 -111.58c-17.8703,-5.72842 -30.8272,-22.4767 -30.8272,-42.2486 0,-24.4846 19.8428,-44.3273 44.3391,-44.3273 24.4727,0 44.3273,19.8428 44.3273,44.3273 0,21.4609 -15.2482,39.3666 -35.4926,43.4533z"/>
 </g>
</svg>
