<?xml version="1.0" encoding="UTF-8"?>
<!DOCTYPE svg PUBLIC "-//W3C//DTD SVG 1.1//EN" "http://www.w3.org/Graphics/SVG/1.1/DTD/svg11.dtd">
<!-- Creator: CorelDRAW -->
<svg xmlns="http://www.w3.org/2000/svg" xml:space="preserve" width="64px" height="64px" shape-rendering="geometricPrecision" text-rendering="geometricPrecision" image-rendering="optimizeQuality" fill-rule="evenodd" clip-rule="evenodd"
viewBox="0 0 640 640"
 xmlns:xlink="http://www.w3.org/1999/xlink">
 <g id="Layer_x0020_1">
  <metadata id="CorelCorpID_0Corel-Layer"/>
  <path d="M638.37 153.97l1.62994 327.488c0.070867,17.1026 -10.6891,31.7957 -26.02,37.9847l0.0354335 0.070867 -284.59 115.076c-5.89377,2.36223 -12.0001,3.34256 -17.9648,3.10634 -7.64183,1.39372 -15.7561,0.661425 -23.457,-2.57483l-262.291 -110.257 0.0236223 -0.070867c-15.1537,-6.36622 -25.7956,-21.5081 -25.7365,-39.1186l1.54726 -323.343c-0.20079,-3.43705 0,-6.92134 0.649614,-10.382 0.106301,-4.79533 1.08663,-9.63791 3.03547,-14.3506 4.39375,-10.6419 12.886,-18.4963 23.0082,-22.5711l-0.0236223 -0.0472447 273.759 -110.21c11.1497,-4.48824 23.1263,-4.00399 33.3429,0.389769l273.275 98.8241c16.3585,5.90558 26.6932,20.6223 27.4255,36.5319 1.59451,4.441 2.35042,8.97649 2.35042,13.4529zm-370.091 412.552l2.04333 -285.263 -219.168 -94.7374 -4.62998 286.421 221.755 93.5799zm323.284 -379.989l-244.928 94.7846 1.93703 284.944 244.468 -91.3358 -1.4764 -288.393z"/>
 </g>
</svg>
