<svg xmlns:dc="http://purl.org/dc/elements/1.1/" xmlns:cc="http://creativecommons.org/ns#" xmlns:rdf="http://www.w3.org/1999/02/22-rdf-syntax-ns#" xmlns:svg="http://www.w3.org/2000/svg" xmlns="http://www.w3.org/2000/svg" xmlns:sodipodi="http://sodipodi.sourceforge.net/DTD/sodipodi-0.dtd" xmlns:inkscape="http://www.inkscape.org/namespaces/inkscape" version="1.1" id="svg2" inkscape:version="0.92.2 (5c3e80d, 2017-08-06)" inkscape:export-ydpi="90" sodipodi:docname="NBC Peacock (2013) (Print).svg" inkscape:export-xdpi="90" inkscape:export-filename="C:\Users\iampears\Pictures\NBC 2014 Ident Style.png" x="0px" y="0px" width="1000" height="571.617" viewBox="0 0 1000 1000" enable-background="new 0 0 595.279 351.982" xml:space="preserve"><metadata id="metadata17333"><rdf:RDF><cc:Work rdf:about=""><dc:format>image/svg+xml</dc:format><dc:type rdf:resource="http://purl.org/dc/dcmitype/StillImage"/><dc:title/></cc:Work></rdf:RDF></metadata><defs id="defs17331"/><sodipodi:namedview pagecolor="#ffffff" bordercolor="#666666" borderopacity="1" objecttolerance="10" gridtolerance="10" guidetolerance="10" inkscape:pageopacity="0" inkscape:pageshadow="2" inkscape:window-width="1366" inkscape:window-height="705" id="namedview17329" showgrid="false" inkscape:zoom="0.67470322" inkscape:cx="475.06227" inkscape:cy="252.75363" inkscape:window-x="-8" inkscape:window-y="-8" inkscape:window-maximized="1" inkscape:current-layer="svg2"/><g id="g17326" transform="matrix(1.7436862,0,0,1.7436862,-19.092775,-20.521406)"><path id="path3348-8" inkscape:connector-curvature="0" d="m 233.617,11.799 c -15.924,-0.499 -32.102,5.312 -43.279,16.873 -16.073,16.13 -22.804,39.666 -15.602,62.232 28.111,63.812 55.243,128.116 85.056,191.145 13.304,-66.014 18.97,-134.469 31.145,-201.025 2.203,-14.551 -1.462,-27.826 -7.569,-39.408 -6.725,-11.153 -17.411,-20.288 -28.718,-25.193 -6.623,-2.87 -13.796,-4.397 -21.033,-4.624 z"/><path id="path3352-7" inkscape:connector-curvature="0" d="m 169.157,121.342 86.777,191.5 C 196.56,274.967 135.764,235.484 78.257,195.807 60.446,180.967 54.522,156.365 60.559,133.826 65.073,116.932 79.21,101.147 95.964,94.909 c 27.513,-10 58.543,0.612 73.193,26.433"/><path id="path3356-7" inkscape:connector-curvature="0" d="m 16.011,256.875 c -9.082,18.521 -5.537,43.959 7.396,59.749 12.856,15.137 30.033,23.34 50.151,22.813 L 267.195,339.59 104.988,230.095 C 89.166,220.184 65.06,218.376 47.744,226.387 34.399,231.421 21.838,244.16 16.011,256.875"/><path id="path6968-9" inkscape:connector-curvature="0" d="m 361.835,11.799 c -7.238,0.227 -14.469,1.754 -21.091,4.623 -11.309,4.905 -21.993,14.04 -28.718,25.193 -4.845,9.185 -8.149,19.414 -8.205,30.509 h 0.173 0.347 0.116 0.866 5.952 22.882 c 4.099,0.741 8.229,2.686 6.991,5.084 -0.01,0.019 0.008,0.04 0,0.058 -0.035,0.064 -0.072,0.108 -0.115,0.173 -0.134,0.229 -0.329,0.468 -0.578,0.693 -0.188,0.169 -0.391,0.353 -0.636,0.52 -0.417,0.3 -0.896,0.559 -1.502,0.867 -0.026,0.013 -0.031,0.044 -0.06,0.058 -0.543,0.271 -1.203,0.534 -1.907,0.809 -0.649,0.22 -1.272,0.448 -1.905,0.693 -12.857,4.988 -21.82,15.059 -25.366,22.419 l -0.115,0.231 c -0.209,0.467 -0.3,1.002 -0.347,1.56 -0.054,0.609 -0.063,1.176 0,1.733 l 0.058,0.636 c 0.011,0.056 -0.011,0.117 0,0.173 l 0.289,1.791 1.099,7.223 7.915,50.906 v 0.115 c 0.05,0.346 0.068,0.693 0.116,1.039 0.146,1.08 0.315,2.156 0.462,3.236 l 0.06,0.348 c 4.354,31.998 8.752,63.986 14.677,95.457 0.025,0.133 0.032,0.271 0.058,0.403 l 1.215,7.974 c 0.38,1.899 0.701,3.825 1.099,5.721 0.019,-0.039 0.039,-0.076 0.058,-0.114 29.803,-62.979 56.903,-127.263 84.998,-191.029 7.202,-22.566 0.474,-46.16 -15.602,-62.29 C 393.936,17.053 377.758,11.3 361.835,11.799 Z"/><path id="path6970-1" inkscape:connector-curvature="0" d="m 426.241,121.342 -86.777,191.826 c 58.45,-37.873 117.882,-79.645 176.37,-119.649 17.811,-14.84 25.042,-37.154 19.005,-59.693 -4.514,-16.894 -18.651,-32.679 -35.405,-38.917 -27.514,-10 -58.544,0.612 -73.193,26.433"/><path id="path6972-5" inkscape:connector-curvature="0" d="m 579.386,256.875 c 9.082,18.521 5.537,43.959 -7.396,59.749 -12.856,15.137 -30.033,23.34 -50.151,22.813 L 328.202,339.59 490.411,230.094 c 15.821,-9.911 39.927,-11.719 57.244,-3.708 13.343,5.035 25.905,17.774 31.731,30.489"/></g></svg>
