<?xml version="1.0" encoding="UTF-8" standalone="no"?>
<!-- Created with Inkscape (http://www.inkscape.org/) -->

<svg
   width="136.52499mm"
   height="87.3125mm"
   viewBox="0 0 136 136"
   version="1.1"
   id="svg547"
   inkscape:version="1.1 (c68e22c387, 2021-05-23)"
   sodipodi:docname="drawing.svg"
   xmlns:inkscape="http://www.inkscape.org/namespaces/inkscape"
   xmlns:sodipodi="http://sodipodi.sourceforge.net/DTD/sodipodi-0.dtd"
   xmlns="http://www.w3.org/2000/svg"
   xmlns:svg="http://www.w3.org/2000/svg">
  <sodipodi:namedview
     id="namedview549"
     pagecolor="#ffffff"
     bordercolor="#666666"
     borderopacity="1.0"
     inkscape:pageshadow="2"
     inkscape:pageopacity="0.0"
     inkscape:pagecheckerboard="0"
     inkscape:document-units="mm"
     showgrid="false"
     inkscape:zoom="0.60756173"
     inkscape:cx="283.92177"
     inkscape:cy="483.90145"
     inkscape:window-width="1920"
     inkscape:window-height="1020"
     inkscape:window-x="0"
     inkscape:window-y="0"
     inkscape:window-maximized="1"
     inkscape:current-layer="layer1" />
  <defs
     id="defs544" />
  <g
     inkscape:label="Layer 1"
     inkscape:groupmode="layer"
     id="layer1"
     transform="translate(-29.961239,-20.298639)">
    <path
       style="stroke-width:0.264583"
       d="m 39.781295,107.12334 c -6.640587,-2.12508 -10.502296,-8.788446 -8.840618,-15.254466 0.611367,-2.37899 1.680034,-4.29982 3.33746,-5.99877 3.370108,-3.45453 8.899768,-4.77354 13.185352,-3.14514 1.272316,0.48344 1.272316,0.48344 7.120282,-5.36886 5.847964,-5.8523 5.847964,-5.8523 5.263931,-7.30616 -0.483944,-1.20469 -0.584173,-1.97531 -0.584845,-4.49656 -7.94e-4,-2.7195 0.07619,-3.22679 0.724064,-4.77568 1.461473,-3.494 4.596145,-6.343171 8.17465,-7.430108 1.52476,-0.463132 2.308773,-0.540303 4.444384,-0.437468 2.284047,0.109985 2.830512,0.237641 4.58593,1.071285 3.236052,1.536795 5.526677,4.005691 6.68325,7.203401 0.575246,1.59045 0.575246,1.59045 2.92037,2.03858 1.289817,0.24647 5.738404,1.11067 9.885748,1.92044 6.887497,1.34478 7.563537,1.43414 7.805207,1.03173 3.54128,-5.89679 9.61009,-8.33337 15.68051,-6.2956 2.01548,0.67657 2.01548,0.67657 12.19022,-9.498165 10.17474,-10.174735 10.17474,-10.174735 9.45463,-11.973527 -2.29762,-5.739345 -0.0149,-12.52011 5.28893,-15.710606 7.39161,-4.446398 16.8433,-0.446026 19.02556,8.052454 1.68762,6.572161 -2.55364,13.600481 -9.26161,15.347683 -1.91673,0.499246 -4.32895,0.520046 -6.13,0.05286 -1.35978,-0.352723 -1.35978,-0.352723 -12.0919,10.384901 -10.73213,10.73761 -10.73213,10.73761 -10.33955,12.03644 0.58198,1.92542 0.50829,5.38304 -0.15717,7.37463 -1.80294,5.39586 -6.55103,8.7714 -12.28254,8.73196 -5.06672,-0.0349 -9.20907,-2.69672 -11.41052,-7.33235 -0.64871,-1.36599 -1.10232,-1.99655 -1.5058,-2.09321 -0.51585,-0.12357 -16.067207,-3.14826 -18.039925,-3.50871 -0.436562,-0.0798 -0.975296,-0.19518 -1.197186,-0.25648 -0.254109,-0.0702 -0.591283,0.23735 -0.910934,0.83091 -0.801592,1.48847 -3.752591,4.07383 -5.612617,4.91721 -2.874782,1.30349 -6.819775,1.4986 -9.522647,0.47097 -0.695184,-0.26431 -0.927661,-0.0665 -6.673675,5.67955 -5.953398,5.9534 -5.953398,5.9534 -5.466763,7.48776 0.637428,2.0098 0.813668,4.62636 0.4346,6.45233 -0.971149,4.677996 -4.772092,8.700676 -9.380537,9.927756 -1.874962,0.49925 -5.016015,0.4387 -6.796241,-0.13099 z m 5.469874,-8.661946 c 2.020626,-0.95885 2.866479,-3.85312 1.645842,-5.6316 -1.024774,-1.4931 -1.930678,-2.0087 -3.529296,-2.0087 -1.592376,0 -2.510056,0.51874 -3.505729,1.98168 -0.799295,1.17441 -0.779187,2.68515 0.05468,4.10804 1.080017,1.84291 3.336363,2.49876 5.334506,1.55058 z m 72.489711,-22.82841 c 2.2652,-1.02874 3.0702,-4.02504 1.59945,-5.9533 -1.84614,-2.42041 -5.015,-2.34109 -6.87678,0.17214 -0.7638,1.03106 -0.72626,2.97541 0.0827,4.28435 0.65441,1.05887 2.2675,1.98893 3.44957,1.98893 0.3638,0 1.14908,-0.22146 1.74505,-0.49212 z m -44.069382,-6.44158 c 1.31555,-0.664 2.360702,-2.2037 2.367904,-3.48834 0.0066,-1.17053 -0.98217,-2.97255 -1.96388,-3.57928 -1.155287,-0.71401 -3.157008,-0.7193 -4.31804,-0.0114 -3.468708,2.11489 -1.930093,7.47762 2.195314,7.6516 0.296588,0.0125 1.070004,-0.24515 1.718702,-0.57257 z M 155.6298,37.270277 c 1.97995,-1.010094 2.77355,-3.825049 1.57488,-5.586249 -0.88682,-1.303016 -1.86315,-1.909498 -3.28758,-2.042208 -3.17916,-0.296193 -5.37291,3.342341 -3.69071,6.121388 1.14029,1.883808 3.4191,2.519391 5.40341,1.507069 z"
       id="path702" />
  </g>
</svg>
