<?xml version="1.0" encoding="UTF-8" standalone="no"?>
<!-- Created with Inkscape (http://www.inkscape.org/) -->

<svg
   width="72.141846mm"
   height="178.84857mm"
   viewBox="0 0 72.141846 178.84857"
   version="1.1"
   id="svg1"
   xmlns:inkscape="http://www.inkscape.org/namespaces/inkscape"
   xmlns:sodipodi="http://sodipodi.sourceforge.net/DTD/sodipodi-0.dtd"
   xmlns="http://www.w3.org/2000/svg"
   xmlns:svg="http://www.w3.org/2000/svg">
  <sodipodi:namedview
     id="namedview1"
     pagecolor="#505050"
     bordercolor="#ffffff"
     borderopacity="1"
     inkscape:showpageshadow="0"
     inkscape:pageopacity="0"
     inkscape:pagecheckerboard="1"
     inkscape:deskcolor="#505050"
     inkscape:document-units="mm" />
  <defs
     id="defs1" />
  <g
     inkscape:label="Layer 1"
     inkscape:groupmode="layer"
     id="layer1"
     transform="translate(-63.569246,-25.43147)">
    <rect
       style="display:none;stroke:#502d16;stroke-width:0;stroke-linecap:round;stroke-linejoin:round"
       id="rect1"
       width="210"
       height="297"
       x="0"
       y="0" />
    <path
       id="rect2"
       style="stroke:#502d16;stroke-width:0;stroke-linecap:round;stroke-linejoin:round"
       d="m 69.029378,139.30002 c -1.679933,0 -3.032373,1.35244 -3.032373,3.03238 v 58.91526 c 0,1.67994 1.35244,3.03238 3.032373,3.03238 h 61.221582 c 1.67994,0 3.03238,-1.35244 3.03238,-3.03238 V 142.3324 c 0,-1.67994 -1.35244,-3.03238 -3.03238,-3.03238 z m 8.827368,21.1181 h 10.595219 v 5.98774 H 77.856746 Z m 16.486333,0 h 10.594701 v 5.98774 H 94.343079 Z m 16.485301,0 h 10.5947 v 5.98774 h -10.5947 z m -32.971634,9.20512 h 10.595219 v 5.98775 H 77.856746 Z m 16.486333,0 h 10.594701 v 5.98775 H 94.343079 Z m 16.485301,0 h 10.5947 v 5.98775 h -10.5947 z m -32.971634,9.2046 h 10.595219 v 5.98775 H 77.856746 Z m 16.486333,0 h 10.594701 v 5.98775 H 94.343079 Z m 16.485301,0 h 10.5947 v 5.98775 h -10.5947 z m -32.971634,9.20513 h 10.595219 v 5.98775 H 77.856746 Z m 16.486333,0 h 10.594701 v 5.98775 H 94.343079 Z m 16.485301,0 h 10.5947 v 5.98775 h -10.5947 z" />
    <path
       id="rect3"
       style="stroke:#502d16;stroke-width:0;stroke-linecap:round;stroke-linejoin:round"
       d="m 66.601619,75.51167 c -1.679932,0 -3.032373,1.35244 -3.032373,3.032373 v 62.528487 c 0,1.67993 1.352441,3.03237 3.032373,3.03237 h 66.077101 c 1.67994,0 3.03238,-1.35244 3.03238,-3.03237 V 78.544043 c 0,-1.679933 -1.35244,-3.032373 -3.03238,-3.032373 z m 32.731853,9.285738 A 23.727417,23.140673 0 0 1 123.06122,107.93811 23.727417,23.140673 0 0 1 99.333472,131.07882 23.727417,23.140673 0 0 1 75.606238,107.93811 23.727417,23.140673 0 0 1 99.333472,84.797408 Z" />
    <rect
       style="stroke:#502d16;stroke-width:0;stroke-linecap:round;stroke-linejoin:round"
       id="rect4"
       width="8.3517284"
       height="73.370094"
       x="68.188484"
       y="25.431471"
       ry="4.1758642"
       rx="4.1758642" />
    <rect
       style="stroke:#502d16;stroke-width:0;stroke-linecap:round;stroke-linejoin:round"
       id="rect23"
       width="54.986366"
       height="5.0221128"
       x="71.114044"
       y="92.425468" />
    <rect
       style="stroke:#502d16;stroke-width:0;stroke-linecap:round;stroke-linejoin:round"
       id="rect24"
       width="54.986366"
       height="5.0221128"
       x="71.114044"
       y="85.975807" />
    <rect
       style="stroke:#502d16;stroke-width:0;stroke-linecap:round;stroke-linejoin:round"
       id="rect25"
       width="54.986366"
       height="5.0221128"
       x="71.114044"
       y="105.32479" />
    <rect
       style="stroke:#502d16;stroke-width:0;stroke-linecap:round;stroke-linejoin:round"
       id="rect26"
       width="54.986366"
       height="5.0221128"
       x="71.114044"
       y="98.87513" />
    <rect
       style="stroke:#502d16;stroke-width:0;stroke-linecap:round;stroke-linejoin:round"
       id="rect27"
       width="54.986366"
       height="5.0221128"
       x="71.114044"
       y="118.22412" />
    <rect
       style="stroke:#502d16;stroke-width:0;stroke-linecap:round;stroke-linejoin:round"
       id="rect28"
       width="54.986366"
       height="5.0221128"
       x="71.114044"
       y="111.77446" />
    <rect
       style="stroke:#502d16;stroke-width:0;stroke-linecap:round;stroke-linejoin:round"
       id="rect29"
       width="54.986366"
       height="5.0221128"
       x="71.114044"
       y="124.67378" />
  </g>
</svg>
