<?xml version="1.0" encoding="UTF-8" standalone="no"?>
<svg
   xmlns:dc="http://purl.org/dc/elements/1.1/"
   xmlns:cc="http://creativecommons.org/ns#"
   xmlns:rdf="http://www.w3.org/1999/02/22-rdf-syntax-ns#"
   xmlns:svg="http://www.w3.org/2000/svg"
   xmlns="http://www.w3.org/2000/svg"
   viewBox="0 0 400.44223 389.97614"
   height="389.97614"
   width="400.44223"
   id="svg3779"
   version="1.1">
  <metadata
     id="metadata3785">
    <rdf:RDF>
      <cc:Work
         rdf:about="">
        <dc:format>image/svg+xml</dc:format>
        <dc:type
           rdf:resource="http://purl.org/dc/dcmitype/StillImage" />
        <dc:title></dc:title>
      </cc:Work>
    </rdf:RDF>
  </metadata>
  <defs
     id="defs3783">
    <clipPath
       id="clipPath3848"
       clipPathUnits="userSpaceOnUse">
      <rect
         y="5.2505965"
         x="-0.47732696"
         height="389.97614"
         width="400.95465"
         id="rect3850" />
    </clipPath>
  </defs>
  <g
     transform="translate(0.47732697,-4.7732695)"
     id="g3836">
    <path
       clip-path="url(#clipPath3848)"
       id="path3840"
       d="M 0,200 V 0 H 200 400 V 200 400 H 200 0 Z"
       style="fill:rgba(0,0,0,0)" />
    <path
       id="path3838"
       d="M 56.666667,394.33333 C 56.3,393.96667 56,351.24322 56,299.39235 56,247.54148 55.623541,204.88537 55.163425,204.601 54.70331,204.31664 42.32831,204.0244 27.663425,203.95158 12.998541,203.87877 1,203.52152 1,203.1577 1,201.83864 197.77953,5.7610985 198.73763,6.1254747 199.27925,6.3314636 244.88436,51.3875 300.08231,106.25 L 400.44222,206 H 367.22111 334 v 92.91821 c 0,51.10502 -0.27314,93.63002 -0.60699,94.5 C 332.84358,394.85 319.7256,395 195.05968,395 119.31019,395 57.033333,394.7 56.666667,394.33333 Z M 220.81561,371.75845 c 0.24209,-2.10296 -0.22377,-2.94862 -2,-3.63055 -1.27359,-0.48895 -5.46561,-2.0999 -9.31561,-3.57989 -13.48776,-5.18487 -16.32181,-8.58871 -18.98281,-22.79937 -1.42346,-7.60178 -1.59323,-16.07458 -1.29237,-64.5 l 0.34635,-55.74864 3.22031,-11.84043 c 8.26009,-30.37072 19.5393,-49.90872 33.55332,-58.12149 6.54853,-3.83769 7.78417,-2.82577 11.75718,9.62846 6.97048,21.85045 18.86559,32.03195 35.61884,30.48761 8.77125,-0.80855 15.50161,-3.99544 20.73813,-9.81972 6.02001,-6.6957 8.07474,-13.0167 7.91024,-24.33443 -0.23608,-16.24226 -6.74727,-27.21182 -19.63488,-33.07933 -5.30619,-2.41582 -7.82886,-2.89799 -16.94519,-3.23881 -13.15664,-0.49187 -20.82602,1.5089 -34.41279,8.97753 -17.10156,9.40069 -29.80497,21.10726 -37.50071,34.55801 -1.66867,2.91653 -3.44832,5.04668 -3.95478,4.73367 C 189.40959,169.13511 189,160.02241 189,148.96404 c 0,-19.78302 -0.0159,-19.92833 -2.3416,-21.45221 -2.02641,-1.32775 -7.91546,-1.49911 -43.75,-1.27305 L 101.5,126.5 v 2.97592 c 0,3.14597 -0.14564,3.05866 9.09099,5.44995 8.13632,2.10644 14.07434,7.97818 16.66114,16.47517 0.95756,3.14535 1.24787,25.03726 1.24787,94.09896 0,81.6658 -0.16023,90.71873 -1.73025,97.76147 -2.96793,13.31339 -5.60218,16.43555 -17.80459,21.10238 -4.10584,1.57028 -8.47766,3.24616 -9.71516,3.72417 -2.178219,0.84138 -3.146162,4.68248 -1.575713,6.25293 0.370857,0.37086 28.158353,0.55836 61.750003,0.41667 L 220.5,374.5 Z"
       style="fill-opacity:1" />
  </g>
</svg>
