<?xml version="1.0" encoding="UTF-8"?>
<!DOCTYPE svg PUBLIC "-//W3C//DTD SVG 1.1//EN" "http://www.w3.org/Graphics/SVG/1.1/DTD/svg11.dtd">
<!-- Creator: CorelDRAW -->
<svg xmlns="http://www.w3.org/2000/svg" xml:space="preserve" width="64px" height="64px" shape-rendering="geometricPrecision" text-rendering="geometricPrecision" image-rendering="optimizeQuality" fill-rule="evenodd" clip-rule="evenodd"
viewBox="0 0 640 640"
 xmlns:xlink="http://www.w3.org/1999/xlink">
 <g id="Layer_x0020_1">
  <metadata id="CorelCorpID_0Corel-Layer"/>
  <path d="M8.17333 71.4339l623.665 0c4.50006,0 8.17333,3.67327 8.17333,8.16152l0 120.013c0,4.48824 -3.67327,8.16152 -8.17333,8.16152l-623.665 0c-4.50006,0 -8.17333,-3.67327 -8.17333,-8.16152l0 -120.013c0,-4.48824 3.67327,-8.16152 8.17333,-8.16152zm0 360.808l623.665 0c4.50006,0 8.17333,3.67327 8.17333,8.16152l0 120.001c0,4.50006 -3.67327,8.16152 -8.17333,8.16152l-623.665 0c-4.50006,0 -8.17333,-3.66146 -8.17333,-8.16152l0 -120.001c0,-4.48824 3.67327,-8.16152 8.17333,-8.16152zm384.477 34.4532l202.455 0 0 67.4182 -202.455 0 0 -67.4182zm-384.477 -214.845l623.665 0c4.50006,0 8.17333,3.67327 8.17333,8.16152l0 119.99c0,4.48824 -3.67327,8.16152 -8.17333,8.16152l-623.665 0c-4.50006,0 -8.17333,-3.67327 -8.17333,-8.16152l0 -119.99c0,-4.48824 3.67327,-8.16152 8.17333,-8.16152zm132.238 34.4532l454.695 0 0 67.4063 -454.695 0 0 -67.4063zm252.239 -180.404l202.455 0 0 67.4063 -202.455 0 0 -67.4063z"/>
 </g>
</svg>
